HIERARCHY
ROOT hip
{
  OFFSET 0.0 0.0 0.0
  CHANNELS 6 Xposition Yposition Zposition Zrotation Yrotation Xrotation
  JOINT torso
  {
    OFFSET 0.0 0.0 0.0
    CHANNELS 3 Zrotation Xrotation Yrotation
    JOINT neck
    {
      OFFSET -31.42098999999993 328.8025209999999 74.3554680000002
      CHANNELS 3 Zrotation Xrotation Yrotation
      JOINT head
      {
        OFFSET 3.3519900000001144 303.81732099999994 206.53942900000015
        CHANNELS 3 Zrotation Xrotation Yrotation
        End Site
        {
          OFFSET 0.0 0.0 0.0
        }
      }
    }
    JOINT left_collar
    {
      OFFSET -31.42098999999993 328.8025209999999 74.3554680000002
      CHANNELS 3 Zrotation Xrotation Yrotation
      JOINT left_upper_arm
      {
        OFFSET -124.490479 -8.162841999999841 8.226441000000023
        CHANNELS 3 Zrotation Xrotation Yrotation
        JOINT left_forearm
        {
          OFFSET -253.595764 -1.5758060000000569 105.0729980000001
          CHANNELS 3 Zrotation Xrotation Yrotation
          JOINT left_hand
          {
            OFFSET -269.48803699999996 0.1478270000000066 -55.346191999999974
            CHANNELS 3 Zrotation Xrotation Yrotation
            End Site
            {
              OFFSET 0.0 0.0 0.0
            }
          }
        }
      }
    }
    JOINT right_collar
    {
      OFFSET -31.42098999999993 328.8025209999999 74.3554680000002
      CHANNELS 3 Zrotation Xrotation Yrotation
      JOINT right_upper_arm
      {
        OFFSET 162.02484099999998 0.46441600000002836 2.2303470000001653
        CHANNELS 3 Zrotation Xrotation Yrotation
        JOINT right_forearm
        {
          OFFSET 240.01246700000004 -25.835875999999985 121.34179699999959
          CHANNELS 3 Zrotation Xrotation Yrotation
          JOINT right_hand
          {
            OFFSET 252.48539699999992 18.910399999999868 -67.53466800000001
            CHANNELS 3 Zrotation Xrotation Yrotation
            End Site
            {
              OFFSET 0.0 0.0 0.0
            }
          }
        }
      }
    }
  }
}
MOTION
Frames: 14
Frame Time: 0.01
-285.002071201419 273.71576886846617 585.5196956640667 5.720827285519894 -0.9098398286044351 -38.20571852590705 0.08488348738129667 2.392546052408806 0.21226355320946225 -9.915513016721592 -11.843688732863006 7.394454353519143 0.0 0.0 0.0 1.106858558773645 0.3057194187392849 -3.0810113995952673 43.99305813150194 17.30023845059809 3.781984970629028 2.59314619965773 -0.03218199392295244 -22.316114865029878 0.0 0.0 0.0 -0.5796146791154393 0.01739370480478097 4.289544154616303 -48.90032437224882 9.57673909889816 -27.899865782162273 -52.61378934622168 -10.378806678457302 9.802073529005192 0.0 0.0 0.0
-284.7355307443994 273.75909613968156 585.9837919886318 5.735523667288783 -0.9022926535570286 -38.24498924646518 0.08635713940380171 2.391145782218 0.21182371534925246 -9.904318523467973 -11.87188910644496 7.387646305268702 0.0 0.0 0.0 1.1062774280745988 0.3070213094998476 -3.0989409708048803 43.999261685954 17.2827570170678 3.8259849462234032 2.598844355504331 -0.032230621093691986 -22.315930736532813 0.0 0.0 0.0 -0.5804935399671265 0.01740822154769798 4.275708253812797 -48.898416393309795 9.576342997906885 -27.89958008484648 -52.64488815872696 -10.383680996476674 9.805563193834317 0.0 0.0 0.0
-284.47033165982003 273.8032107337874 586.4403402982103 5.75043993302524 -0.8936651867597373 -38.285219301185556 0.08787293943279814 2.389298050474743 0.21133163914446687 -9.893179458554604 -11.900031868214732 7.380873238022746 0.0 0.0 0.0 1.1063758932389807 0.30831270571948566 -3.11589188787188 44.00310861566263 17.265319704399527 3.8676784876038326 2.604545916402948 -0.03224713234320102 -22.317194804383853 0.0 0.0 0.0 -0.5816191194753886 0.01743580212154907 4.262185323816908 -48.89749680341705 9.576794359407497 -27.898357642375665 -52.67250612137399 -10.389082732376275 9.806099028254318 0.0 0.0 0.0
-284.20722955980506 273.8475194071776 586.8895634397602 5.765526130083658 -0.8840835426454475 -38.326441022847206 0.08943931646972733 2.387033204812419 0.21078852083462649 -9.882161414559908 -11.92811271806855 7.374183241722794 0.0 0.0 0.0 1.1070182432739042 0.30958464166115934 -3.1319100337891976 44.00458951702406 17.248000440802883 3.9069011917222896 2.610195973821014 -0.03223509831461532 -22.319717712871636 0.0 0.0 0.0 -0.5828741335711076 0.017470605752625705 4.2490678463839435 -48.89763068208688 9.578127079779927 -27.896173794477996 -52.696379163584275 -10.395026261983578 9.803523497129275 0.0 0.0 0.0
-283.946988650513 273.8914352694743 587.331667624355 5.780733281858871 -0.8736715353798902 -38.36865498843013 0.09106587272334192 2.3843810598894115 0.2101952629922807 -9.87130634797909 -11.956127663779267 7.367607051904887 0.0 0.0 0.0 1.1080429969539207 0.3108291089475996 -3.1470873366522105 44.00374321331231 17.230877864686732 3.9435227721902795 2.615713753529301 -0.03219902441904306 -22.32326119504371 0.0 0.0 0.0 -0.5841326521477562 0.0175063717139927 4.236429529759164 -48.89886123944551 9.580354108399769 -27.893028468766406 -52.7163096080102 -10.401520559153402 9.797723003379687 0.0 0.0 0.0
-283.6903818841283 273.9343937671728 587.7668304480447 5.796014562000416 -0.8625496903005783 -38.41182718907155 0.09276224716587612 2.3813704047402537 0.20955266050214338 -9.860632871002705 -11.9840727696522 7.361158238843724 0.0 0.0 0.0 1.1092702293601748 0.31203927619085986 -3.1615555710446546 44.00065167937804 17.214037091746604 3.9774382232131726 2.6209934348178994 -0.03214437553048554 -22.327538171802257 0.0 0.0 0.0 -0.5852647010455676 0.017536648883230983 4.22432388588797 -48.90120787065311 9.583467857966923 -27.888944518328834 -52.73216948867693 -10.408568196334102 9.788631576401363 0.0 0.0 0.0
-283.43818914382734 273.9758685956477 588.195189700877 5.811326347372052 -0.8508344396579339 -38.45588793482571 0.0945370616823448 2.3780286952248844 0.20886158767070465 -9.850137856055186 -12.011943657310391 7.354834351209398 0.0 0.0 0.0 1.1105097217092026 0.31320964733763057 -3.175478239695574 43.995433129175076 17.197570999168985 4.008558390929616 2.6259062152836314 -0.0320775776484403 -22.332214213623633 0.0 0.0 0.0 -0.5861412337114835 0.017555040677945926 4.212783486502917 -48.904664768252694 9.587441151293143 -27.88396541485684 -52.74390201911554 -10.416164277432545 9.776233938755201 0.0 0.0 0.0
-283.19119341401256 274.0153867869763 588.6168335499218 5.826629079920372 -0.8386375091725344 -38.50073256117599 0.09639703476304423 2.374381881148133 0.20812316410346196 -9.839799250303228 -12.03973465114662 7.348618934217745 0.0 0.0 0.0 1.111569682940546 0.3143361513090252 -3.189040795251403 43.98823348707751 17.18158094664793 4.036800331870474 2.630303474129431 -0.0320059866841283 -22.336910549605538 0.0 0.0 0.0 -0.5866393773473404 0.017555461639611955 4.201819932879276 -48.90920012578894 9.592228675790425 -27.878152363585265 -52.75152117424449 -10.424295343686591 9.760567851736184 0.0 0.0 0.0
-282.95017496772243 274.0525422586402 589.0317925871998 5.841887869247531 -0.8260655118813961 -38.546223989182224 0.09834630793856833 2.3704543745603948 0.20733889068056555 -9.829579913621929 -12.067437561824761 7.342484285610005 0.0 0.0 0.0 1.1122657673984797 0.3154161621365323 -3.2024395694700134 43.979216563708896 17.166176843666538 4.062077950022957 2.6340208603838304 -0.03193781474728441 -22.34120877902746 0.0 0.0 0.0 -0.5866477843220381 0.017532398594133563 4.1914246506838975 -48.9147559500175 9.597768873917019 -27.871580972566733 -52.75510940248805 -10.432938319067636 9.74172559461325 0.0 0.0 0.0
-282.7159036711249 274.0870071723035 589.4400341181373 5.857072785228878 -0.8132197723399008 -38.59219715545771 0.10038598800461843 2.366269213962769 0.20651076031844723 -9.819432226492737 -12.09504019113036 7.3363947677815 0.0 0.0 0.0 1.1124300708752628 0.31644845302778285 -3.2158698675298805 43.96855335850751 17.15147647790209 4.084293484433932 2.636883118903103 -0.03188200565551946 -22.344657395837785 0.0 0.0 0.0 -0.5860718444005704 0.017481165670309922 4.18157065349497 -48.92124849567526 9.603986167035263 -27.864337660476476 -52.75481355477141 -10.442059586415557 9.719854397048689 0.0 0.0 0.0
-282.4891295745716 274.1185405333787 589.8414589644402 5.872158821118891 -0.8001964105628299 -38.638465259916565 0.10251387919440298 2.3618485026212475 0.2056413564404063 -9.809303179554334 -12.12252468717828 7.330310470810329 0.0 0.0 0.0 1.1119197327061778 0.31743308836102035 -3.229513739180098 43.95641099894804 17.137604051698982 4.103330429530345 2.638709460173629 -0.03184805388350966 -22.34678017542069 0.0 0.0 0.0 -0.5848384661871882 0.017398139881306493 4.172215376757966 -48.92856934533984 9.6107934056837 -27.85651599979881 -52.75083919270007 -10.45161430435334 9.695155625632676 0.0 0.0 0.0
-282.2705720457162 274.14699356203744 590.2359009757889 5.887125540903045 -0.7870867169598027 -38.68482767919133 0.10472437525152863 2.3572141874397383 0.20473395180844986 -9.79913965870154 -12.149865869742227 7.324191021973816 0.0 0.0 0.0 1.1106247272809249 0.31837125609617845 -3.243527953962588 43.94294188106216 17.12468792779607 4.119048401916666 2.639319269261256 -0.03184576462634053 -22.3470863992938 0.0 0.0 0.0 -0.5829001391122047 0.01728096357478466 4.163304573310356 -48.93658716633686 9.618094463328049 -27.848213156697767 -52.74344350387068 -10.461546081664512 9.667882532078368 0.0 0.0 0.0
-282.0609078065196 274.172311493119 590.6231293691394 5.9019564513361855 -0.773977839592167 -38.73107927213429 0.10700849487069414 2.352389203528554 0.20379261356710512 -9.788893662489178 -12.177029606292002 7.317999351928775 0.0 0.0 0.0 1.108474416107938 0.319265042956139 -3.258032708066011 43.92827359117292 17.11285764457292 4.131280351770408 2.63853792961765 -0.031884956827490464 -22.34508281071358 0.0 0.0 0.0 -0.5802380339700991 0.017128701648635638 4.154777120907733 -48.94515017531435 9.6257869268866 -27.839526526954543 -52.7329271001526 -10.471787116218604 9.63833640909225 0.0 0.0 0.0
-281.8607583450055 274.1945316212554 591.0028539206562 5.916638159618513 -0.7609537774622984 -38.7770206718164 0.1093540554488309 2.347398953811605 0.20282231254996297 -9.778527205996314 -12.203971290102483 7.311705238819619 0.0 0.0 0.0 1.1054424590365164 0.32011715884315756 -3.273101607899221 43.912500168228235 17.10224030656137 4.139832397654628 2.636202514122342 -0.03197511569796483 -22.34028710407592 0.0 0.0 0.0 -0.5768639630832916 0.01694194384287329 4.146570464109067 -48.954089325270935 9.633764861717523 -27.83055061779386 -52.719625007228196 -10.482258880006677 9.606861071452458 0.0 0.0 0.0
